<svg width="24" height="24" viewBox="0 0 24 24" fill="none" xmlns="http://www.w3.org/2000/svg">
<rect x="3" y="5" width="18" height="14" rx="2" stroke="black" stroke-width="2"/>
<path d="M7 8C7 8.55228 6.55228 9 6 9V9C5.44772 9 5 8.55228 5 8V8C5 7.44772 5.44772 7 6 7V7C6.55228 7 7 7.44772 7 8V8Z" fill="black"/>
<path d="M10 8C10 8.55228 9.55228 9 9 9V9C8.44772 9 8 8.55228 8 8V8C8 7.44772 8.44772 7 9 7V7C9.55228 7 10 7.44772 10 8V8Z" fill="black"/>
<path d="M13 8C13 8.55228 12.5523 9 12 9V9C11.4477 9 11 8.55228 11 8V8C11 7.44772 11.4477 7 12 7V7C12.5523 7 13 7.44772 13 8V8Z" fill="black"/>
</svg>
