<svg width="24" height="24" viewBox="0 0 24 24" fill="none" xmlns="http://www.w3.org/2000/svg">
<g clip-path="url(#clip0_2_181)">
<path d="M19 8C19.5523 8 20 8.44772 20 9C20 9.55228 19.5523 10 19 10L5 10C4.44771 10 4 9.55228 4 9C4 8.44772 4.44771 8 5 8L19 8Z" fill="#141313"/>
<path d="M6.87871 5.70711C7.26923 5.31658 7.9024 5.31658 8.29292 5.70711C8.68345 6.09763 8.68345 6.7308 8.29292 7.12132L5.81805 9.59619C5.62279 9.79146 5.3062 9.79146 5.11094 9.59619L4.40383 8.88909C4.20857 8.69383 4.20857 8.37724 4.40383 8.18198L6.87871 5.70711Z" fill="#141313"/>
<path d="M4.40379 9.76777C4.20852 9.57251 4.20852 9.25592 4.40379 9.06066L5.11089 8.35355C5.30615 8.15829 5.62274 8.15829 5.818 8.35355L8.29287 10.8284C8.6834 11.219 8.6834 11.8521 8.29287 12.2426C7.90235 12.6332 7.26918 12.6332 6.87866 12.2426L4.40379 9.76777Z" fill="#141313"/>
<path d="M5 17C4.44772 17 4 16.5523 4 16C4 15.4477 4.44772 15 5 15H19C19.5523 15 20 15.4477 20 16C20 16.5523 19.5523 17 19 17H5Z" fill="#141313"/>
<path d="M17.1213 19.2929C16.7308 19.6834 16.0976 19.6834 15.7071 19.2929C15.3166 18.9024 15.3166 18.2692 15.7071 17.8787L18.182 15.4038C18.3772 15.2085 18.6938 15.2085 18.8891 15.4038L19.5962 16.1109C19.7914 16.3062 19.7914 16.6228 19.5962 16.818L17.1213 19.2929Z" fill="#141313"/>
<path d="M19.5962 15.2322C19.7915 15.4275 19.7915 15.7441 19.5962 15.9393L18.8891 16.6464C18.6938 16.8417 18.3773 16.8417 18.182 16.6464L15.7071 14.1716C15.3166 13.781 15.3166 13.1479 15.7071 12.7574C16.0977 12.3668 16.7308 12.3668 17.1213 12.7574L19.5962 15.2322Z" fill="#141313"/>
</g>
<defs>
<clipPath id="clip0_2_181">
<rect width="24" height="24" fill="white"/>
</clipPath>
</defs>
</svg>
