<svg width="24" height="24" viewBox="0 0 24 24" fill="none" xmlns="http://www.w3.org/2000/svg">
<rect x="5" y="6" width="14" height="14" rx="2" stroke="black" stroke-width="2"/>
<path d="M8 4C8 3.44772 8.44772 3 9 3V3C9.55228 3 10 3.44772 10 4V8C10 8.55228 9.55228 9 9 9V9C8.44772 9 8 8.55228 8 8V4Z" fill="black"/>
<path d="M14 4C14 3.44772 14.4477 3 15 3V3C15.5523 3 16 3.44772 16 4V8C16 8.55228 15.5523 9 15 9V9C14.4477 9 14 8.55228 14 8V4Z" fill="black"/>
<path d="M5 12C4.44772 12 4 11.5523 4 11C4 10.4477 4.44772 10 5 10L19 10C19.5523 10 20 10.4477 20 11C20 11.5523 19.5523 12 19 12L5 12Z" fill="black"/>
<path d="M9 13C9.55228 13 10 13.4477 10 14V14C10 14.5523 9.55228 15 9 15V15C8.44772 15 8 14.5523 8 14V14C8 13.4477 8.44772 13 9 13V13Z" fill="black"/>
<path d="M9 16C9.55228 16 10 16.4477 10 17V17C10 17.5523 9.55228 18 9 18V18C8.44772 18 8 17.5523 8 17V17C8 16.4477 8.44772 16 9 16V16Z" fill="black"/>
<path d="M12 13C12.5523 13 13 13.4477 13 14V14C13 14.5523 12.5523 15 12 15V15C11.4477 15 11 14.5523 11 14V14C11 13.4477 11.4477 13 12 13V13Z" fill="black"/>
<path d="M15 13C15.5523 13 16 13.4477 16 14V14C16 14.5523 15.5523 15 15 15V15C14.4477 15 14 14.5523 14 14V14C14 13.4477 14.4477 13 15 13V13Z" fill="black"/>
<path d="M12 16C12.5523 16 13 16.4477 13 17V17C13 17.5523 12.5523 18 12 18V18C11.4477 18 11 17.5523 11 17V17C11 16.4477 11.4477 16 12 16V16Z" fill="black"/>
<path d="M15 16C15.5523 16 16 16.4477 16 17V17C16 17.5523 15.5523 18 15 18V18C14.4477 18 14 17.5523 14 17V17C14 16.4477 14.4477 16 15 16V16Z" fill="black"/>
</svg>
