<svg width="24" height="24" viewBox="0 0 24 24" fill="none" xmlns="http://www.w3.org/2000/svg">
<g clip-path="url(#clip0_3406_157)">
<path d="M9.1642 16.2604C8.77367 16.6509 8.14051 16.6509 7.74999 16.2604V16.2604C7.35946 15.8699 7.35946 15.2367 7.74999 14.8462L14.8211 7.77512C15.2116 7.38459 15.8447 7.38459 16.2353 7.77512V7.77512C16.6258 8.16564 16.6258 8.79881 16.2353 9.18933L9.1642 16.2604Z" fill="#141313"/>
<path d="M16.4926 12.1036C16.4926 12.6558 16.0449 13.1036 15.4926 13.1036V13.1036C14.9403 13.1036 14.4926 12.6558 14.4926 12.1036V8.60355C14.4926 8.32741 14.7165 8.10355 14.9926 8.10355H15.9926C16.2688 8.10355 16.4926 8.32741 16.4926 8.60355V12.1036Z" fill="#141313"/>
<path d="M15.3713 7.48223C15.6474 7.48223 15.8713 7.70609 15.8713 7.98223V8.98223C15.8713 9.25837 15.6474 9.48223 15.3713 9.48223H11.8713C11.319 9.48223 10.8713 9.03452 10.8713 8.48223V8.48223C10.8713 7.92995 11.319 7.48223 11.8713 7.48223H15.3713Z" fill="#141313"/>
<circle cx="12" cy="12" r="9" stroke="black" stroke-width="2"/>
</g>
<defs>
<clipPath id="clip0_3406_157">
<rect width="24" height="24" fill="white"/>
</clipPath>
</defs>
</svg>
