<svg width="24" height="24" viewBox="0 0 24 24" fill="none" xmlns="http://www.w3.org/2000/svg">
<g clip-path="url(#clip0_3406_165)">
<path d="M16.2353 14.8107C16.6258 15.2012 16.6258 15.8344 16.2353 16.2249V16.2249C15.8448 16.6154 15.2116 16.6154 14.8211 16.2249L7.74999 9.15381C7.35947 8.76328 7.35947 8.13012 7.74999 7.73959V7.73959C8.14052 7.34907 8.77368 7.34907 9.16421 7.73959L16.2353 14.8107Z" fill="#141313"/>
<path d="M12.0784 7.48223C12.6307 7.48223 13.0784 7.92994 13.0784 8.48223V8.48223C13.0784 9.03451 12.6307 9.48223 12.0784 9.48223H8.57843C8.30229 9.48223 8.07843 9.25837 8.07843 8.98223V7.98223C8.07843 7.70608 8.30229 7.48223 8.57843 7.48223H12.0784Z" fill="#141313"/>
<path d="M7.45709 8.60355C7.45709 8.32741 7.68095 8.10355 7.95709 8.10355H8.95709C9.23323 8.10355 9.45709 8.32741 9.45709 8.60355V12.1036C9.45709 12.6558 9.00938 13.1036 8.45709 13.1036V13.1036C7.90481 13.1036 7.45709 12.6558 7.45709 12.1036V8.60355Z" fill="#141313"/>
<circle cx="12" cy="12" r="9" stroke="black" stroke-width="2"/>
</g>
<defs>
<clipPath id="clip0_3406_165">
<rect width="24" height="24" fill="white"/>
</clipPath>
</defs>
</svg>
