<svg width="24" height="24" viewBox="0 0 24 24" fill="none" xmlns="http://www.w3.org/2000/svg">
<g clip-path="url(#clip0_3406_173)">
<path d="M16.2353 9.18934C16.6258 8.79881 16.6258 8.16565 16.2353 7.77512V7.77512C15.8448 7.3846 15.2116 7.3846 14.8211 7.77512L7.74999 14.8462C7.35947 15.2367 7.35947 15.8699 7.74999 16.2604V16.2604C8.14052 16.6509 8.77368 16.6509 9.16421 16.2604L16.2353 9.18934Z" fill="#141313"/>
<path d="M12.0784 16.5178C12.6307 16.5178 13.0784 16.0701 13.0784 15.5178V15.5178C13.0784 14.9655 12.6307 14.5178 12.0784 14.5178H8.57843C8.30229 14.5178 8.07843 14.7416 8.07843 15.0178V16.0178C8.07843 16.2939 8.30229 16.5178 8.57843 16.5178H12.0784Z" fill="#141313"/>
<path d="M7.45709 15.3964C7.45709 15.6726 7.68095 15.8964 7.95709 15.8964H8.95709C9.23323 15.8964 9.45709 15.6726 9.45709 15.3964V11.8964C9.45709 11.3442 9.00938 10.8964 8.45709 10.8964V10.8964C7.90481 10.8964 7.45709 11.3442 7.45709 11.8964V15.3964Z" fill="#141313"/>
<circle cx="12" cy="12" r="9" stroke="black" stroke-width="2"/>
</g>
<defs>
<clipPath id="clip0_3406_173">
<rect width="24" height="24" fill="white"/>
</clipPath>
</defs>
</svg>
