<svg width="24" height="24" viewBox="0 0 24 24" fill="none" xmlns="http://www.w3.org/2000/svg">
<g clip-path="url(#clip0_3406_149)">
<path d="M7.71446 9.18934C7.32394 8.79881 7.32394 8.16565 7.71446 7.77512V7.77512C8.10499 7.3846 8.73815 7.3846 9.12868 7.77512L16.1997 14.8462C16.5903 15.2367 16.5903 15.8699 16.1997 16.2604V16.2604C15.8092 16.6509 15.1761 16.6509 14.7855 16.2604L7.71446 9.18934Z" fill="#141313"/>
<path d="M11.8713 16.5178C11.319 16.5178 10.8713 16.0701 10.8713 15.5178V15.5178C10.8713 14.9655 11.319 14.5178 11.8713 14.5178H15.3713C15.6474 14.5178 15.8713 14.7416 15.8713 15.0178V16.0178C15.8713 16.2939 15.6474 16.5178 15.3713 16.5178H11.8713Z" fill="#141313"/>
<path d="M16.4926 15.3964C16.4926 15.6726 16.2688 15.8964 15.9926 15.8964H14.9926C14.7165 15.8964 14.4926 15.6726 14.4926 15.3964V11.8964C14.4926 11.3442 14.9404 10.8964 15.4926 10.8964V10.8964C16.0449 10.8964 16.4926 11.3442 16.4926 11.8964V15.3964Z" fill="#141313"/>
<circle cx="12" cy="12" r="9" stroke="black" stroke-width="2"/>
</g>
<defs>
<clipPath id="clip0_3406_149">
<rect width="24" height="24" fill="white"/>
</clipPath>
</defs>
</svg>
