<svg width="24" height="24" viewBox="0 0 24 24" fill="none" xmlns="http://www.w3.org/2000/svg">
<path d="M3 4C2.44772 4 2 3.55228 2 3C2 2.44772 2.44772 2 3 2L21 2C21.5523 2 22 2.44772 22 3C22 3.55228 21.5523 4 21 4L3 4Z" fill="#141313"/>
<path d="M3 4C2.44772 4 2 3.55228 2 3C2 2.44772 2.44772 2 3 2L21 2C21.5523 2 22 2.44772 22 3C22 3.55228 21.5523 4 21 4L3 4Z" fill="#141313"/>
<path d="M3 4C2.44772 4 2 3.55228 2 3C2 2.44772 2.44772 2 3 2L21 2C21.5523 2 22 2.44772 22 3C22 3.55228 21.5523 4 21 4L3 4Z" fill="#141313"/>
<path d="M3 4C2.44772 4 2 3.55228 2 3C2 2.44772 2.44772 2 3 2L21 2C21.5523 2 22 2.44772 22 3C22 3.55228 21.5523 4 21 4L3 4Z" fill="#141313"/>
<path d="M3 4C2.44772 4 2 3.55228 2 3C2 2.44772 2.44772 2 3 2L21 2C21.5523 2 22 2.44772 22 3C22 3.55228 21.5523 4 21 4L3 4Z" fill="#141313"/>
<path d="M3 4C2.44772 4 2 3.55228 2 3C2 2.44772 2.44772 2 3 2L21 2C21.5523 2 22 2.44772 22 3C22 3.55228 21.5523 4 21 4L3 4Z" fill="#141313"/>
<path d="M3 22C2.44772 22 2 21.5523 2 21C2 20.4477 2.44772 20 3 20L21 20C21.5523 20 22 20.4477 22 21C22 21.5523 21.5523 22 21 22L3 22Z" fill="#141313"/>
<path d="M2 3C2 2.44772 2.44772 2 3 2C3.55228 2 4 2.44772 4 3L4 21C4 21.5523 3.55228 22 3 22C2.44772 22 2 21.5523 2 21L2 3Z" fill="#141313"/>
<path d="M2 3C2 2.44772 2.44772 2 3 2C3.55228 2 4 2.44772 4 3L4 21C4 21.5523 3.55228 22 3 22C2.44772 22 2 21.5523 2 21L2 3Z" fill="#141313"/>
<path d="M20 3C20 2.44772 20.4477 2 21 2C21.5523 2 22 2.44772 22 3V21C22 21.5523 21.5523 22 21 22C20.4477 22 20 21.5523 20 21V3Z" fill="#141313"/>
<path d="M12 7C12.5523 7 13 7.44772 13 8C13 8.55228 12.5523 9 12 9C11.4477 9 11 8.55228 11 8C11 7.44772 11.4477 7 12 7Z" fill="#141313"/>
<path d="M12 15C12.5523 15 13 15.4477 13 16C13 16.5523 12.5523 17 12 17C11.4477 17 11 16.5523 11 16C11 15.4477 11.4477 15 12 15Z" fill="#141313"/>
<path d="M17 7C17.5523 7 18 7.44772 18 8C18 8.55228 17.5523 9 17 9C16.4477 9 16 8.55228 16 8C16 7.44772 16.4477 7 17 7Z" fill="#141313"/>
<path d="M17 15C17.5523 15 18 15.4477 18 16C18 16.5523 17.5523 17 17 17C16.4477 17 16 16.5523 16 16C16 15.4477 16.4477 15 17 15Z" fill="#141313"/>
<path d="M7 15C7.55228 15 8 15.4477 8 16C8 16.5523 7.55228 17 7 17C6.44772 17 6 16.5523 6 16C6 15.4477 6.44772 15 7 15Z" fill="#141313"/>
<path d="M7 7C7.55228 7 8 7.44772 8 8C8 8.55228 7.55228 9 7 9C6.44772 9 6 8.55228 6 8C6 7.44772 6.44772 7 7 7Z" fill="#141313"/>
</svg>
