<svg width="24" height="24" viewBox="0 0 24 24" fill="none" xmlns="http://www.w3.org/2000/svg">
<path d="M3 4C2.44772 4 2 3.55228 2 3C2 2.44772 2.44772 2 3 2L21 2C21.5523 2 22 2.44772 22 3C22 3.55228 21.5523 4 21 4L3 4Z" fill="#141313"/>
<path d="M3 4C2.44772 4 2 3.55228 2 3C2 2.44772 2.44772 2 3 2L21 2C21.5523 2 22 2.44772 22 3C22 3.55228 21.5523 4 21 4L3 4Z" fill="#141313"/>
<path d="M3 4C2.44772 4 2 3.55228 2 3C2 2.44772 2.44772 2 3 2L21 2C21.5523 2 22 2.44772 22 3C22 3.55228 21.5523 4 21 4L3 4Z" fill="#141313"/>
<path d="M3 4C2.44772 4 2 3.55228 2 3C2 2.44772 2.44772 2 3 2L21 2C21.5523 2 22 2.44772 22 3C22 3.55228 21.5523 4 21 4L3 4Z" fill="#141313"/>
<path d="M3 4C2.44772 4 2 3.55228 2 3C2 2.44772 2.44772 2 3 2L21 2C21.5523 2 22 2.44772 22 3C22 3.55228 21.5523 4 21 4L3 4Z" fill="#141313"/>
<path d="M3 4C2.44772 4 2 3.55228 2 3C2 2.44772 2.44772 2 3 2L21 2C21.5523 2 22 2.44772 22 3C22 3.55228 21.5523 4 21 4L3 4Z" fill="#141313"/>
<path d="M3 22C2.44772 22 2 21.5523 2 21C2 20.4477 2.44772 20 3 20L21 20C21.5523 20 22 20.4477 22 21C22 21.5523 21.5523 22 21 22L3 22Z" fill="#141313"/>
<path d="M2 3C2 2.44772 2.44772 2 3 2C3.55228 2 4 2.44772 4 3L4 21C4 21.5523 3.55228 22 3 22C2.44772 22 2 21.5523 2 21L2 3Z" fill="#141313"/>
<path d="M2 3C2 2.44772 2.44772 2 3 2C3.55228 2 4 2.44772 4 3L4 21C4 21.5523 3.55228 22 3 22C2.44772 22 2 21.5523 2 21L2 3Z" fill="#141313"/>
<path d="M20 3C20 2.44772 20.4477 2 21 2C21.5523 2 22 2.44772 22 3V21C22 21.5523 21.5523 22 21 22C20.4477 22 20 21.5523 20 21V3Z" fill="#141313"/>
<path d="M12 11C12.5523 11 13 11.4477 13 12C13 12.5523 12.5523 13 12 13C11.4477 13 11 12.5523 11 12C11 11.4477 11.4477 11 12 11Z" fill="#141313"/>
<path d="M16 7C16.5523 7 17 7.44772 17 8C17 8.55228 16.5523 9 16 9C15.4477 9 15 8.55228 15 8C15 7.44772 15.4477 7 16 7Z" fill="#141313"/>
<path d="M16 15C16.5523 15 17 15.4477 17 16C17 16.5523 16.5523 17 16 17C15.4477 17 15 16.5523 15 16C15 15.4477 15.4477 15 16 15Z" fill="#141313"/>
<path d="M8 15C8.55228 15 9 15.4477 9 16C9 16.5523 8.55228 17 8 17C7.44772 17 7 16.5523 7 16C7 15.4477 7.44772 15 8 15Z" fill="#141313"/>
<path d="M8 7C8.55228 7 9 7.44772 9 8C9 8.55228 8.55228 9 8 9C7.44772 9 7 8.55228 7 8C7 7.44772 7.44772 7 8 7Z" fill="#141313"/>
</svg>
