<svg width="24" height="24" viewBox="0 0 24 24" fill="none" xmlns="http://www.w3.org/2000/svg">
<path d="M11 5C11 4.44772 11.4477 4 12 4V4C12.5523 4 13 4.44772 13 5V15C13 15.5523 12.5523 16 12 16V16C11.4477 16 11 15.5523 11 15V5Z" fill="black"/>
<path d="M7 11C6.44772 11 6 10.5523 6 10V10C6 9.44772 6.44772 9 7 9L17 9C17.5523 9 18 9.44772 18 10V10C18 10.5523 17.5523 11 17 11L7 11Z" fill="black"/>
<path d="M7 19C6.44772 19 6 18.5523 6 18V18C6 17.4477 6.44772 17 7 17L17 17C17.5523 17 18 17.4477 18 18V18C18 18.5523 17.5523 19 17 19L7 19Z" fill="black"/>
</svg>
