<svg width="24" height="24" viewBox="0 0 24 24" fill="none" xmlns="http://www.w3.org/2000/svg">
<path d="M11.4277 5.61816C11.7714 5.37846 12.2286 5.37846 12.5723 5.61816L18.5723 9.80273C18.8403 9.98976 19 10.2962 19 10.623V18C19 18.5523 18.5523 19 18 19H6C5.44772 19 5 18.5523 5 18V10.623C5 10.2962 5.15968 9.98976 5.42773 9.80273L11.4277 5.61816Z" fill="black" stroke="black" stroke-width="2"/>
<path d="M9.5 17C9.22386 17 9 16.7761 9 16.5V16.5C9 16.2239 9.22386 16 9.5 16H14.5C14.7761 16 15 16.2239 15 16.5V16.5C15 16.7761 14.7761 17 14.5 17H9.5Z" fill="white"/>
</svg>
