<svg width="24" height="24" viewBox="0 0 24 24" fill="none" xmlns="http://www.w3.org/2000/svg">
<path d="M11.1416 5.20801C11.6571 4.84845 12.3429 4.84845 12.8584 5.20801L18.8584 9.39258C19.2605 9.67311 19.5 10.1327 19.5 10.623V18C19.5 18.8284 18.8284 19.5 18 19.5H6C5.17157 19.5 4.5 18.8284 4.5 18V10.623C4.5 10.1327 4.7395 9.67312 5.1416 9.39258L11.1416 5.20801Z" stroke="black"/>
<path d="M9.5 17C9.22386 17 9 16.7761 9 16.5V16.5C9 16.2239 9.22386 16 9.5 16H14.5C14.7761 16 15 16.2239 15 16.5V16.5C15 16.7761 14.7761 17 14.5 17H9.5Z" fill="black"/>
</svg>
