<svg width="24" height="24" viewBox="0 0 24 24" fill="none" xmlns="http://www.w3.org/2000/svg">
<g clip-path="url(#clip0_147_248)">
<path d="M5.89849 20.586L14.8588 11.0969C15.6151 10.296 16.8766 10.2574 17.6804 11.0106L20.9375 14.0625" stroke="black" stroke-width="2" stroke-linecap="round"/>
<circle cx="7.5" cy="8.5" r="1.75" stroke="black" stroke-width="1.5"/>
<path d="M21 10V17C21 19.2091 19.2091 21 17 21H7C4.79086 21 3 19.2091 3 17V7C3 4.79086 4.79086 3 7 3H14" stroke="black" stroke-width="2" stroke-linecap="round"/>
<path d="M18 2C18 1.44772 18.4477 1 19 1V1C19.5523 1 20 1.44772 20 2V8C20 8.55228 19.5523 9 19 9V9C18.4477 9 18 8.55228 18 8V2Z" fill="black"/>
<path d="M16 6C15.4477 6 15 5.55228 15 5V5C15 4.44772 15.4477 4 16 4H22C22.5523 4 23 4.44772 23 5V5C23 5.55228 22.5523 6 22 6H16Z" fill="black"/>
</g>
<defs>
<clipPath id="clip0_147_248">
<rect width="24" height="24" fill="white"/>
</clipPath>
</defs>
</svg>
