<svg width="24" height="24" viewBox="0 0 24 24" fill="none" xmlns="http://www.w3.org/2000/svg">
<path d="M15 17H17C19.7614 17 22 14.7614 22 12C22 9.23858 19.7614 7 17 7H15" stroke="black" stroke-width="2" stroke-linecap="round"/>
<path d="M9 17H7C4.23858 17 2 14.7614 2 12C2 9.23858 4.23858 7 7 7H9" stroke="black" stroke-width="2" stroke-linecap="round"/>
<path d="M16 11C16.5523 11 17 11.4477 17 12V12C17 12.5523 16.5523 13 16 13L8 13C7.44772 13 7 12.5523 7 12V12C7 11.4477 7.44772 11 8 11L16 11Z" fill="black"/>
</svg>
