<svg width="24" height="24" viewBox="0 0 24 24" fill="none" xmlns="http://www.w3.org/2000/svg">
<path d="M9.44972 16.2322C9.84025 15.8417 9.84025 15.2085 9.44972 14.818V14.818C9.0592 14.4275 8.42603 14.4275 8.03551 14.818L3.79287 19.0606C3.40234 19.4512 3.40234 20.0843 3.79287 20.4749V20.4749C4.18339 20.8654 4.81656 20.8654 5.20708 20.4749L9.44972 16.2322Z" fill="black"/>
<path d="M8.13815 20.7865C8.69044 20.7865 9.13815 20.3388 9.13815 19.7865V19.7865C9.13815 19.2342 8.69044 18.7865 8.13815 18.7865H4.63815C4.36201 18.7865 4.13815 19.0103 4.13815 19.2865V20.2865C4.13815 20.5626 4.36201 20.7865 4.63815 20.7865H8.13815Z" fill="black"/>
<path d="M3.51682 19.6651C3.51682 19.9413 3.74067 20.1651 4.01682 20.1651H5.01682C5.29296 20.1651 5.51682 19.9413 5.51682 19.6651V16.1651C5.51682 15.6128 5.0691 15.1651 4.51682 15.1651V15.1651C3.96453 15.1651 3.51682 15.6128 3.51682 16.1651V19.6651Z" fill="black"/>
<path d="M14.4227 8.09621C14.0322 8.48673 14.0322 9.1199 14.4227 9.51042V9.51042C14.8133 9.90095 15.4464 9.90095 15.837 9.51042L20.0796 5.26778C20.4701 4.87726 20.4701 4.24409 20.0796 3.85357V3.85357C19.6891 3.46304 19.0559 3.46304 18.6654 3.85357L14.4227 8.09621Z" fill="black"/>
<path d="M15.7595 3.51685C15.2072 3.51685 14.7595 3.96456 14.7595 4.51685V4.51685C14.7595 5.06913 15.2072 5.51685 15.7595 5.51685H19.2595C19.5356 5.51685 19.7595 5.29299 19.7595 5.01685V4.01685C19.7595 3.7407 19.5356 3.51685 19.2595 3.51685H15.7595Z" fill="black"/>
<path d="M20.3808 4.63818C20.3808 4.36204 20.1569 4.13818 19.8808 4.13818H18.8808C18.6046 4.13818 18.3808 4.36204 18.3808 4.63818V8.13818C18.3808 8.69047 18.8285 9.13818 19.3808 9.13818V9.13818C19.9331 9.13818 20.3808 8.69047 20.3808 8.13818V4.63818Z" fill="black"/>
</svg>
