<svg width="24" height="24" viewBox="0 0 24 24" fill="none" xmlns="http://www.w3.org/2000/svg">
<path d="M3 11C2.44772 11 2 10.5523 2 10C2 9.44772 2.44772 9 3 9L21 9C21.5523 9 22 9.44772 22 10C22 10.5523 21.5523 11 21 11L3 11Z" fill="black"/>
<path d="M3 15C2.44772 15 2 14.5523 2 14C2 13.4477 2.44772 13 3 13L21 13C21.5523 13 22 13.4477 22 14C22 14.5523 21.5523 15 21 15L3 15Z" fill="black"/>
<path d="M18.435 7.12132C18.8256 6.7308 18.8256 6.09763 18.435 5.70711C18.0445 5.31658 17.4114 5.31658 17.0208 5.70711L5.70712 17.0208C5.3166 17.4113 5.3166 18.0445 5.70712 18.435C6.09765 18.8256 6.73081 18.8256 7.12134 18.435L18.435 7.12132Z" fill="black"/>
</svg>
