<svg width="24" height="24" viewBox="0 0 24 24" fill="none" xmlns="http://www.w3.org/2000/svg">
<path d="M19 7V13C19 14.6569 17.6569 16 16 16H8C6.34315 16 5 14.6569 5 13V7H19Z" stroke="black" stroke-width="2"/>
<path d="M10 7H8V2C8 1.44772 8.44772 1 9 1V1C9.55228 1 10 1.44772 10 2V7Z" fill="black"/>
<path d="M16 7H14V2C14 1.44772 14.4477 1 15 1V1C15.5523 1 16 1.44772 16 2V7Z" fill="black"/>
<path d="M13 16H11V21C11 21.5523 11.4477 22 12 22V22C12.5523 22 13 21.5523 13 21V16Z" fill="black"/>
</svg>
