<svg width="24" height="24" viewBox="0 0 24 24" fill="none" xmlns="http://www.w3.org/2000/svg">
<path d="M2 7V5C2 3.34315 3.34315 2 5 2H7M2 17V19C2 20.6569 3.34315 22 5 22H7M17 22H19C20.6569 22 22 20.6569 22 19V17M22 7V5C22 3.34315 20.6569 2 19 2H17" stroke="black" stroke-width="2" stroke-linecap="round"/>
<path d="M8 6C8 5.44772 8.44772 5 9 5V5C9.55228 5 10 5.44772 10 6L10 18C10 18.5523 9.55228 19 9 19V19C8.44772 19 8 18.5523 8 18L8 6Z" fill="black"/>
<path d="M5 6C5 5.44772 5.44772 5 6 5V5C6.55228 5 7 5.44772 7 6L7 18C7 18.5523 6.55228 19 6 19V19C5.44772 19 5 18.5523 5 18L5 6Z" fill="black"/>
<path d="M11 6C11 5.44772 11.4477 5 12 5V5C12.5523 5 13 5.44772 13 6L13 18C13 18.5523 12.5523 19 12 19V19C11.4477 19 11 18.5523 11 18L11 6Z" fill="black"/>
<path d="M14 6C14 5.44772 14.4477 5 15 5V5C15.5523 5 16 5.44772 16 6L16 18C16 18.5523 15.5523 19 15 19V19C14.4477 19 14 18.5523 14 18L14 6Z" fill="black"/>
<path d="M17 6C17 5.44772 17.4477 5 18 5V5C18.5523 5 19 5.44772 19 6L19 18C19 18.5523 18.5523 19 18 19V19C17.4477 19 17 18.5523 17 18L17 6Z" fill="black"/>
</svg>
