<svg width="24" height="24" viewBox="0 0 24 24" fill="none" xmlns="http://www.w3.org/2000/svg">
<circle cx="12" cy="12" r="4" stroke="black" stroke-width="2"/>
<path d="M11 2C11 1.44772 11.4477 1 12 1V1C12.5523 1 13 1.44772 13 2V5C13 5.55228 12.5523 6 12 6V6C11.4477 6 11 5.55228 11 5V2Z" fill="#141313"/>
<path d="M11 19C11 18.4477 11.4477 18 12 18V18C12.5523 18 13 18.4477 13 19V22C13 22.5523 12.5523 23 12 23V23C11.4477 23 11 22.5523 11 22V19Z" fill="#141313"/>
<path d="M19 13C18.4477 13 18 12.5523 18 12V12C18 11.4477 18.4477 11 19 11H22C22.5523 11 23 11.4477 23 12V12C23 12.5523 22.5523 13 22 13H19Z" fill="#141313"/>
<path d="M2 13C1.44772 13 1 12.5523 1 12V12C1 11.4477 1.44772 11 2 11H5C5.55228 11 6 11.4477 6 12V12C6 12.5523 5.55228 13 5 13H2Z" fill="#141313"/>
<path d="M3.70711 5.12132C3.31658 4.7308 3.31658 4.09763 3.70711 3.70711V3.70711C4.09763 3.31658 4.7308 3.31658 5.12132 3.70711L7.24264 5.82843C7.63316 6.21895 7.63316 6.85212 7.24264 7.24264V7.24264C6.85212 7.63317 6.21895 7.63317 5.82843 7.24264L3.70711 5.12132Z" fill="#141313"/>
<path d="M20.2426 5.12132C20.6332 4.7308 20.6332 4.09763 20.2426 3.70711V3.70711C19.8521 3.31658 19.2189 3.31658 18.8284 3.70711L16.7071 5.82843C16.3166 6.21895 16.3166 6.85212 16.7071 7.24264V7.24264C17.0976 7.63317 17.7308 7.63317 18.1213 7.24264L20.2426 5.12132Z" fill="#141313"/>
<path d="M7.24263 18.1213C7.63316 17.7308 7.63316 17.0976 7.24263 16.7071V16.7071C6.85211 16.3166 6.21894 16.3166 5.82842 16.7071L3.7071 18.8284C3.31657 19.219 3.31657 19.8521 3.7071 20.2426V20.2426C4.09762 20.6332 4.73079 20.6332 5.12131 20.2426L7.24263 18.1213Z" fill="#141313"/>
<path d="M16.7071 18.1213C16.3166 17.7308 16.3166 17.0976 16.7071 16.7071V16.7071C17.0976 16.3166 17.7308 16.3166 18.1213 16.7071L20.2426 18.8284C20.6332 19.219 20.6332 19.8521 20.2426 20.2426V20.2426C19.8521 20.6332 19.219 20.6332 18.8284 20.2426L16.7071 18.1213Z" fill="#141313"/>
</svg>
